<svg id="visual" viewBox="0 0 960 300" width="960" height="300" xmlns="http://www.w3.org/2000/svg" xmlns:xlink="http://www.w3.org/1999/xlink" version="1.1"><rect x="0" y="0" width="960" height="300" fill="#ffffff"></rect><path d="M0 225L16 219.7C32 214.3 64 203.7 96 189.7C128 175.7 160 158.3 192 162.2C224 166 256 191 288 202.3C320 213.7 352 211.3 384 205.2C416 199 448 189 480 177.8C512 166.7 544 154.3 576 152.8C608 151.3 640 160.7 672 170.2C704 179.7 736 189.3 768 193C800 196.7 832 194.3 864 189C896 183.7 928 175.3 944 171.2L960 167L960 0L944 0C928 0 896 0 864 0C832 0 800 0 768 0C736 0 704 0 672 0C640 0 608 0 576 0C544 0 512 0 480 0C448 0 416 0 384 0C352 0 320 0 288 0C256 0 224 0 192 0C160 0 128 0 96 0C64 0 32 0 16 0L0 0Z" fill="#0ee100"></path><path d="M0 127L16 130.5C32 134 64 141 96 141.2C128 141.3 160 134.7 192 132.2C224 129.7 256 131.3 288 137.7C320 144 352 155 384 162.5C416 170 448 174 480 166.5C512 159 544 140 576 130.8C608 121.7 640 122.3 672 123.2C704 124 736 125 768 132.5C800 140 832 154 864 155.5C896 157 928 146 944 140.5L960 135L960 0L944 0C928 0 896 0 864 0C832 0 800 0 768 0C736 0 704 0 672 0C640 0 608 0 576 0C544 0 512 0 480 0C448 0 416 0 384 0C352 0 320 0 288 0C256 0 224 0 192 0C160 0 128 0 96 0C64 0 32 0 16 0L0 0Z" fill="#18c91a"></path><path d="M0 111L16 108.7C32 106.3 64 101.7 96 106.5C128 111.3 160 125.7 192 126.7C224 127.7 256 115.3 288 107.7C320 100 352 97 384 101.5C416 106 448 118 480 122.3C512 126.7 544 123.3 576 117C608 110.7 640 101.3 672 104.8C704 108.3 736 124.7 768 126.2C800 127.7 832 114.3 864 106.7C896 99 928 97 944 96L960 95L960 0L944 0C928 0 896 0 864 0C832 0 800 0 768 0C736 0 704 0 672 0C640 0 608 0 576 0C544 0 512 0 480 0C448 0 416 0 384 0C352 0 320 0 288 0C256 0 224 0 192 0C160 0 128 0 96 0C64 0 32 0 16 0L0 0Z" fill="#1fb224"></path><path d="M0 122L16 121.7C32 121.3 64 120.7 96 117C128 113.3 160 106.7 192 102.3C224 98 256 96 288 99C320 102 352 110 384 108.5C416 107 448 96 480 92.3C512 88.7 544 92.3 576 96.3C608 100.3 640 104.7 672 104.3C704 104 736 99 768 100.8C800 102.7 832 111.3 864 107.3C896 103.3 928 86.7 944 78.3L960 70L960 0L944 0C928 0 896 0 864 0C832 0 800 0 768 0C736 0 704 0 672 0C640 0 608 0 576 0C544 0 512 0 480 0C448 0 416 0 384 0C352 0 320 0 288 0C256 0 224 0 192 0C160 0 128 0 96 0C64 0 32 0 16 0L0 0Z" fill="#249c29"></path><path d="M0 71L16 69.2C32 67.3 64 63.7 96 64.2C128 64.7 160 69.3 192 71.8C224 74.3 256 74.7 288 69.8C320 65 352 55 384 54.2C416 53.3 448 61.7 480 64.3C512 67 544 64 576 60.7C608 57.3 640 53.7 672 52C704 50.3 736 50.7 768 51.2C800 51.7 832 52.3 864 54.5C896 56.7 928 60.3 944 62.2L960 64L960 0L944 0C928 0 896 0 864 0C832 0 800 0 768 0C736 0 704 0 672 0C640 0 608 0 576 0C544 0 512 0 480 0C448 0 416 0 384 0C352 0 320 0 288 0C256 0 224 0 192 0C160 0 128 0 96 0C64 0 32 0 16 0L0 0Z" fill="#27862c"></path><path d="M0 23L16 25C32 27 64 31 96 35.7C128 40.3 160 45.7 192 44.3C224 43 256 35 288 33.8C320 32.7 352 38.3 384 39.3C416 40.3 448 36.7 480 33C512 29.3 544 25.7 576 23.8C608 22 640 22 672 25.2C704 28.3 736 34.7 768 38.8C800 43 832 45 864 42.5C896 40 928 33 944 29.5L960 26L960 0L944 0C928 0 896 0 864 0C832 0 800 0 768 0C736 0 704 0 672 0C640 0 608 0 576 0C544 0 512 0 480 0C448 0 416 0 384 0C352 0 320 0 288 0C256 0 224 0 192 0C160 0 128 0 96 0C64 0 32 0 16 0L0 0Z" fill="#29702c"></path></svg>